<svg xmlns="http://www.w3.org/2000/svg" viewBox="0 0 200 200" fill="none" shape-rendering="auto" width="256" height="256"><metadata xmlns:rdf="http://www.w3.org/1999/02/22-rdf-syntax-ns#" xmlns:xsi="http://www.w3.org/2001/XMLSchema-instance" xmlns:dc="http://purl.org/dc/elements/1.1/" xmlns:dcterms="http://purl.org/dc/terms/"><rdf:RDF><rdf:Description><dc:title>Fun Emoji Set</dc:title><dc:creator>Davis Uche</dc:creator><dc:source xsi:type="dcterms:URI">https://www.figma.com/community/file/968125295144990435</dc:source><dcterms:license xsi:type="dcterms:URI">https://creativecommons.org/licenses/by/4.0/</dcterms:license><dc:rights>Remix of „Fun Emoji Set” (https://www.figma.com/community/file/968125295144990435) by „Davis Uche”, licensed under „CC BY 4.0” (https://creativecommons.org/licenses/by/4.0/)</dc:rights></rdf:Description></rdf:RDF></metadata><mask id="viewboxMask"><rect width="200" height="200" rx="0" ry="0" x="0" y="0" fill="#fff" /></mask><g mask="url(#viewboxMask)"><rect fill="#d84be5" width="200" height="200" x="0" y="0" /><g transform="matrix(1.5625 0 0 1.5625 37.5 110.94)"><path d="M40.54 12h-.75c-9.7.22-20.8 5.3-23.7 16.15a1.36 1.36 0 0 0 .44 1.55 1.41 1.41 0 0 0 2.26-.86c2.55-9.46 12.42-13.89 21.06-14.08 8.24-.16 19.04 3.84 22.46 14.57a1.47 1.47 0 0 0 1.65.55A1.44 1.44 0 0 0 65 28.5C61.85 18.69 52.3 12 40.54 12Z" fill="#000"/></g><g transform="matrix(1.5625 0 0 1.5625 31.25 59.38)"><path fill-rule="evenodd" clip-rule="evenodd" d="M-10.24 2.64c-4.65 4.43-2.22 27.02 7.48 32.71 3.24 1.9 15.66 3.74 21.17 1.63 10.32-3.94 16.86-18.34 16.86-25.23 0-5.08-9.94-10.86-18.17-11.8C9.1-1-6-1.39-10.24 2.64Z" fill="url(#eyesShades-a)"/><path fill-rule="evenodd" clip-rule="evenodd" d="M98.51 2.64c4.66 4.43 2.24 27.02-7.47 32.71-3.23 1.9-15.66 3.74-21.18 1.63C59.55 33.04 53 18.7 53 11.75 53 6.67 62.95.89 71.18-.05c7.97-.95 23.1-1.33 27.33 2.7Z" fill="url(#eyesShades-b)"/><path d="M109.83-2.7a.62.62 0 0 0-.48-.5c-8.12-1.39-30.47-2.95-42.45-.7A33.37 33.37 0 0 0 56.73-.04l-2.37 1.21A20.61 20.61 0 0 1 44.15 3.5c-3.55.12-7.08-.68-10.23-2.32l-2.37-1.2a33.23 33.23 0 0 0-10.17-3.89C9.4-6.1-12.93-4.59-21.07-3.2a.57.57 0 0 0-.47.5 33.81 33.81 0 0 0 0 9.3.6.6 0 0 0 .44.47s2.95.83 4.01 9.09c.84 6.53 4.21 22.03 17.7 24.5 3.63.6 7.3.92 11 .92 1.62.02 3.24-.07 4.85-.28 14.98-2.18 19.62-15.62 21.86-22.13.3-.86.55-1.58.78-2.16 1.48-3.55 2.64-3.93 5.06-3.93 1.9 0 3.58.3 5.05 3.93.22.58.49 1.32.78 2.16 2.23 6.46 6.89 19.9 21.84 22.13 5.3.5 10.62.28 15.85-.65 13.5-2.46 16.89-17.96 17.68-24.5 1.04-8.25 3.97-9.07 3.98-9.08a.6.6 0 0 0 .47-.47c.44-3.08.45-6.21.03-9.3Zm-9.87 18.58c-.77 6.71-3.66 15.7-9.21 18.96-3.08 1.81-15.26 3.66-20.64 1.6-10.25-3.92-16.52-18.2-16.52-24.7 0-4.42 9.08-10.22 17.69-11.22C74.88.1 78.48-.1 82.1-.1c6.8 0 13.54.8 16.03 3.17 1.78 1.71 2.52 6.86 1.83 12.8Zm-65.27-4.13c0 6.49-6.25 20.77-16.48 24.68-5.42 2.07-17.59.22-20.62-1.6-5.56-3.25-8.43-12.24-9.22-18.95-.69-5.9 0-11.1 1.86-12.8C-7.28.7-.54-.1 6.26-.1c3.61 0 7.22.2 10.81.62 8.55 1 17.62 6.77 17.62 11.23Z" fill="#000"/><defs><linearGradient id="eyesShades-a" x1="11.37" y1="37.92" x2="11.37" y2="-.68" gradientUnits="userSpaceOnUse"><stop offset=".32" stop-color="#121212"/><stop offset="1" stop-color="#474747"/></linearGradient><linearGradient id="eyesShades-b" x1="76.91" y1="-.68" x2="76.91" y2="37.92" gradientUnits="userSpaceOnUse"><stop stop-color="#474747"/><stop offset=".68" stop-color="#121212"/></linearGradient></defs></g></g></svg>