<svg xmlns="http://www.w3.org/2000/svg" viewBox="0 0 200 200" fill="none" shape-rendering="auto" width="256" height="256"><metadata xmlns:rdf="http://www.w3.org/1999/02/22-rdf-syntax-ns#" xmlns:xsi="http://www.w3.org/2001/XMLSchema-instance" xmlns:dc="http://purl.org/dc/elements/1.1/" xmlns:dcterms="http://purl.org/dc/terms/"><rdf:RDF><rdf:Description><dc:title>Fun Emoji Set</dc:title><dc:creator>Davis Uche</dc:creator><dc:source xsi:type="dcterms:URI">https://www.figma.com/community/file/968125295144990435</dc:source><dcterms:license xsi:type="dcterms:URI">https://creativecommons.org/licenses/by/4.0/</dcterms:license><dc:rights>Remix of „Fun Emoji Set” (https://www.figma.com/community/file/968125295144990435) by „Davis Uche”, licensed under „CC BY 4.0” (https://creativecommons.org/licenses/by/4.0/)</dc:rights></rdf:Description></rdf:RDF></metadata><mask id="viewboxMask"><rect width="200" height="200" rx="0" ry="0" x="0" y="0" fill="#fff" /></mask><g mask="url(#viewboxMask)"><rect fill="#059ff2" width="200" height="200" x="0" y="0" /><g transform="matrix(1.5625 0 0 1.5625 37.5 110.94)"><path d="M40.54 12h-.75c-9.7.22-20.8 5.3-23.7 16.15a1.36 1.36 0 0 0 .44 1.55 1.41 1.41 0 0 0 2.26-.86c2.55-9.46 12.42-13.89 21.06-14.08 8.24-.16 19.04 3.84 22.46 14.57a1.47 1.47 0 0 0 1.65.55A1.44 1.44 0 0 0 65 28.5C61.85 18.69 52.3 12 40.54 12Z" fill="#000"/></g><g transform="matrix(1.5625 0 0 1.5625 31.25 59.38)"><path d="M63.16 19.11a1.68 1.68 0 0 1-1.5-.93 1.75 1.75 0 0 1-.12-1.32 13.54 13.54 0 0 1 4.85-7.1 13.1 13.1 0 0 1 8.07-2.65v.01c2.9-.01 5.73.92 8.06 2.68a13.63 13.63 0 0 1 4.87 7.08c.13.44.08.91-.13 1.32a1.72 1.72 0 0 1-2.3.73 1.69 1.69 0 0 1-.83-1.03c-.63-2.13-1.91-4-3.66-5.32a9.92 9.92 0 0 0-6.07-2c-2.17 0-4.28.7-6.02 2.02a10.26 10.26 0 0 0-3.64 5.3c-.1.35-.32.65-.6.87a1.7 1.7 0 0 1-.98.36ZM2.17 19.11a1.4 1.4 0 0 1-.5-.08 1.68 1.68 0 0 1-1.01-.85 1.75 1.75 0 0 1-.12-1.32 13.57 13.57 0 0 1 4.85-7.1 13.12 13.12 0 0 1 8.07-2.65v.01c2.9-.02 5.73.92 8.06 2.67a13.6 13.6 0 0 1 4.86 7.09 1.75 1.75 0 0 1-.53 1.85c-.18.14-.38.25-.6.32-.42.13-.9.09-1.3-.12-.4-.22-.7-.59-.83-1.03-.62-2.13-1.9-4-3.65-5.31a9.92 9.92 0 0 0-6.06-2.01 9.92 9.92 0 0 0-6.03 2.02 10.26 10.26 0 0 0-3.64 5.3c-.1.35-.31.65-.6.87-.27.22-.61.35-.97.36Z" fill="#000"/></g></g></svg>