<svg xmlns="http://www.w3.org/2000/svg" viewBox="0 0 200 200" fill="none" shape-rendering="auto" width="256" height="256"><metadata xmlns:rdf="http://www.w3.org/1999/02/22-rdf-syntax-ns#" xmlns:xsi="http://www.w3.org/2001/XMLSchema-instance" xmlns:dc="http://purl.org/dc/elements/1.1/" xmlns:dcterms="http://purl.org/dc/terms/"><rdf:RDF><rdf:Description><dc:title>Fun Emoji Set</dc:title><dc:creator>Davis Uche</dc:creator><dc:source xsi:type="dcterms:URI">https://www.figma.com/community/file/968125295144990435</dc:source><dcterms:license xsi:type="dcterms:URI">https://creativecommons.org/licenses/by/4.0/</dcterms:license><dc:rights>Remix of „Fun Emoji Set” (https://www.figma.com/community/file/968125295144990435) by „Davis Uche”, licensed under „CC BY 4.0” (https://creativecommons.org/licenses/by/4.0/)</dc:rights></rdf:Description></rdf:RDF></metadata><mask id="viewboxMask"><rect width="200" height="200" rx="0" ry="0" x="0" y="0" fill="#fff" /></mask><g mask="url(#viewboxMask)"><rect fill="#71cf62" width="200" height="200" x="0" y="0" /><g transform="matrix(1.5625 0 0 1.5625 37.5 110.94)"><path d="M75.08 12a1.37 1.37 0 0 1 1.26.83 15.26 15.26 0 0 1-15.67 22.03 15.2 15.2 0 0 1-9.53-5.26 1.48 1.48 0 0 1 1.15-2.09c.3-.04.61.02.88.17a12.52 12.52 0 0 0 16.54 2.35c4.01-2.7 7.51-8.54 4.1-16.07a1.48 1.48 0 0 1 .77-1.83c.16-.08.34-.12.51-.13Z" fill="#000"/></g><g transform="matrix(1.5625 0 0 1.5625 31.25 59.38)"><path d="M63 19.06c-.17 0-.34-.03-.5-.1a1.68 1.68 0 0 1-1-.84 1.75 1.75 0 0 1-.12-1.32 13.54 13.54 0 0 1 4.85-7.1 13.1 13.1 0 0 1 8.07-2.64c2.9-.03 5.73.9 8.06 2.66a13.63 13.63 0 0 1 4.87 7.08c.13.44.08.92-.13 1.32a1.72 1.72 0 0 1-2.3.73 1.69 1.69 0 0 1-.83-1.02c-.63-2.14-1.91-4-3.66-5.32a9.92 9.92 0 0 0-6.07-2c-2.17 0-4.28.7-6.02 2.02a10.26 10.26 0 0 0-3.64 5.3c-.1.35-.32.66-.6.88a1.7 1.7 0 0 1-.98.36ZM2.01 19.06a1.4 1.4 0 0 1-.5-.1 1.68 1.68 0 0 1-1-.83 1.75 1.75 0 0 1-.12-1.33 13.57 13.57 0 0 1 4.85-7.09 13.12 13.12 0 0 1 8.07-2.65c2.9-.03 5.73.9 8.06 2.66a13.6 13.6 0 0 1 4.86 7.08 1.75 1.75 0 0 1-.53 1.85c-.18.15-.38.25-.6.32-.42.14-.9.1-1.3-.12s-.7-.58-.83-1.02c-.62-2.13-1.9-4-3.66-5.32a9.92 9.92 0 0 0-6.05-2 9.92 9.92 0 0 0-6.03 2.02 10.26 10.26 0 0 0-3.64 5.3c-.1.35-.31.66-.6.88-.27.22-.61.34-.97.36Z" fill="#000"/><path d="M.67 39.59a6.63 6.63 0 0 1-8.3 4.4 6.64 6.64 0 0 1-3.56-8.69c1.75-4.82 6.4-5.63 11.24-12.46C-.96 30.9 2.6 34.32.67 39.59ZM86.43 39.59a6.34 6.34 0 1 0 11.86-4.4c-1.75-4.77-6.4-5.57-11.28-12.4 1.05 8.1-2.51 11.52-.58 16.79Z" fill="#4ABCF4"/></g></g></svg>