<svg xmlns="http://www.w3.org/2000/svg" viewBox="0 0 200 200" fill="none" shape-rendering="auto" width="256" height="256"><metadata xmlns:rdf="http://www.w3.org/1999/02/22-rdf-syntax-ns#" xmlns:xsi="http://www.w3.org/2001/XMLSchema-instance" xmlns:dc="http://purl.org/dc/elements/1.1/" xmlns:dcterms="http://purl.org/dc/terms/"><rdf:RDF><rdf:Description><dc:title>Fun Emoji Set</dc:title><dc:creator>Davis Uche</dc:creator><dc:source xsi:type="dcterms:URI">https://www.figma.com/community/file/968125295144990435</dc:source><dcterms:license xsi:type="dcterms:URI">https://creativecommons.org/licenses/by/4.0/</dcterms:license><dc:rights>Remix of „Fun Emoji Set” (https://www.figma.com/community/file/968125295144990435) by „Davis Uche”, licensed under „CC BY 4.0” (https://creativecommons.org/licenses/by/4.0/)</dc:rights></rdf:Description></rdf:RDF></metadata><mask id="viewboxMask"><rect width="200" height="200" rx="0" ry="0" x="0" y="0" fill="#fff" /></mask><g mask="url(#viewboxMask)"><rect fill="#f6d594" width="200" height="200" x="0" y="0" /><g transform="matrix(1.5625 0 0 1.5625 37.5 110.94)"><path fill-rule="evenodd" clip-rule="evenodd" d="M76 1v.49a35.13 35.13 0 0 1-.9 7.75 30.24 30.24 0 0 1-14.24 19.24C48.32 36 30.66 35.84 18.37 28A30.01 30.01 0 0 1 4.8 8.66 36.4 36.4 0 0 1 4 1c22.86 8.83 46.05 8.83 69.54.9L76 1Z" fill="#2B1607" stroke="#000" stroke-width="1.48" stroke-linecap="round" stroke-linejoin="round"/><path fill-rule="evenodd" clip-rule="evenodd" d="M76 1.48a33.97 33.97 0 0 1-.9 7.62C54.26 22.59 25.62 22.2 4.8 8.53 4.25 6.06 4 3.53 4 1c22.85 8.67 46.03 8.67 69.51.88l2.49-.4ZM62 28.49c-12.99 7.5-31.29 7.34-44-.49a134.2 134.2 0 0 0 44 .49Z" fill="#fff"/><path fill-rule="evenodd" clip-rule="evenodd" d="M76.57.19c.27.19.43.5.43.83 0 11.3-4.64 19.83-11.62 25.51C58.42 32.2 49.18 35 40 35c-9.19 0-18.42-2.8-25.38-8.47C7.64 20.85 3 12.33 3 1.03A1.03 1.03 0 0 1 4.38.06c23.45 9.02 47.14 8.78 71.25 0 .32-.12.66-.08.94.12ZM5.07 2.5C5.45 12.44 9.7 19.9 15.9 24.94c6.54 5.32 15.3 8.01 24.1 8.01s17.56-2.69 24.1-8c6.2-5.06 10.45-12.53 10.83-22.46C51.36 10.77 28.1 11 5.07 2.5Z" fill="#000"/><path d="M24.01 36.05c4.5 5.16 25.03 5.5 30 0a68.03 68.03 0 0 1-30 0Z" fill="#000" style="mix-blend-mode:soft-light" opacity=".4"/></g><g transform="matrix(1.5625 0 0 1.5625 31.25 59.38)"><path d="M63 19.06c-.17 0-.34-.03-.5-.1a1.68 1.68 0 0 1-1-.84 1.75 1.75 0 0 1-.12-1.32 13.54 13.54 0 0 1 4.85-7.1 13.1 13.1 0 0 1 8.07-2.64c2.9-.03 5.73.9 8.06 2.66a13.63 13.63 0 0 1 4.87 7.08c.13.44.08.92-.13 1.32a1.72 1.72 0 0 1-2.3.73 1.69 1.69 0 0 1-.83-1.02c-.63-2.14-1.91-4-3.66-5.32a9.92 9.92 0 0 0-6.07-2c-2.17 0-4.28.7-6.02 2.02a10.26 10.26 0 0 0-3.64 5.3c-.1.35-.32.66-.6.88a1.7 1.7 0 0 1-.98.36ZM2.01 19.06a1.4 1.4 0 0 1-.5-.1 1.68 1.68 0 0 1-1-.83 1.75 1.75 0 0 1-.12-1.33 13.57 13.57 0 0 1 4.85-7.09 13.12 13.12 0 0 1 8.07-2.65c2.9-.03 5.73.9 8.06 2.66a13.6 13.6 0 0 1 4.86 7.08 1.75 1.75 0 0 1-.53 1.85c-.18.15-.38.25-.6.32-.42.14-.9.1-1.3-.12s-.7-.58-.83-1.02c-.62-2.13-1.9-4-3.66-5.32a9.92 9.92 0 0 0-6.05-2 9.92 9.92 0 0 0-6.03 2.02 10.26 10.26 0 0 0-3.64 5.3c-.1.35-.31.66-.6.88-.27.22-.61.34-.97.36Z" fill="#000"/><path d="M.67 39.59a6.63 6.63 0 0 1-8.3 4.4 6.64 6.64 0 0 1-3.56-8.69c1.75-4.82 6.4-5.63 11.24-12.46C-.96 30.9 2.6 34.32.67 39.59ZM86.43 39.59a6.34 6.34 0 1 0 11.86-4.4c-1.75-4.77-6.4-5.57-11.28-12.4 1.05 8.1-2.51 11.52-.58 16.79Z" fill="#4ABCF4"/></g></g></svg>