<svg xmlns="http://www.w3.org/2000/svg" viewBox="0 0 200 200" fill="none" shape-rendering="auto" width="256" height="256"><metadata xmlns:rdf="http://www.w3.org/1999/02/22-rdf-syntax-ns#" xmlns:xsi="http://www.w3.org/2001/XMLSchema-instance" xmlns:dc="http://purl.org/dc/elements/1.1/" xmlns:dcterms="http://purl.org/dc/terms/"><rdf:RDF><rdf:Description><dc:title>Fun Emoji Set</dc:title><dc:creator>Davis Uche</dc:creator><dc:source xsi:type="dcterms:URI">https://www.figma.com/community/file/968125295144990435</dc:source><dcterms:license xsi:type="dcterms:URI">https://creativecommons.org/licenses/by/4.0/</dcterms:license><dc:rights>Remix of „Fun Emoji Set” (https://www.figma.com/community/file/968125295144990435) by „Davis Uche”, licensed under „CC BY 4.0” (https://creativecommons.org/licenses/by/4.0/)</dc:rights></rdf:Description></rdf:RDF></metadata><mask id="viewboxMask"><rect width="200" height="200" rx="0" ry="0" x="0" y="0" fill="#fff" /></mask><g mask="url(#viewboxMask)"><rect fill="#f6d594" width="200" height="200" x="0" y="0" /><g transform="matrix(1.5625 0 0 1.5625 37.5 110.94)"><path d="M75.08 12a1.37 1.37 0 0 1 1.26.83 15.26 15.26 0 0 1-15.67 22.03 15.2 15.2 0 0 1-9.53-5.26 1.48 1.48 0 0 1 1.15-2.09c.3-.04.61.02.88.17a12.52 12.52 0 0 0 16.54 2.35c4.01-2.7 7.51-8.54 4.1-16.07a1.48 1.48 0 0 1 .77-1.83c.16-.08.34-.12.51-.13Z" fill="#000"/></g><g transform="matrix(1.5625 0 0 1.5625 31.25 59.38)"><path d="M87 13.04C87 5.84 81.18 0 74 0S61 5.84 61 13.04v3.92C61 24.16 66.82 30 74 30s13-5.84 13-13.04v-3.92Z" fill="#000"/><path d="M69.79 9.53a2.29 2.29 0 1 0 0-4.57 2.29 2.29 0 0 0 0 4.57Z" fill="#fff"/><path opacity=".1" d="M74.02 18.35a5.32 5.32 0 1 0 0-10.65 5.32 5.32 0 0 0 0 10.65Z" fill="#fff"/><path d="M26 13.04C26 5.84 20.18 0 13 0S0 5.84 0 13.04v3.92C0 24.16 5.82 30 13 30s13-5.84 13-13.04v-3.92Z" fill="#000"/><path d="M8.79 9.53a2.29 2.29 0 1 0 0-4.57 2.29 2.29 0 0 0 0 4.57Z" fill="#fff"/><path opacity=".1" d="M13.02 18.35a5.32 5.32 0 1 0 0-10.65 5.32 5.32 0 0 0 0 10.65Z" fill="#fff"/></g></g></svg>