<svg xmlns="http://www.w3.org/2000/svg" viewBox="0 0 200 200" fill="none" shape-rendering="auto" width="256" height="256"><metadata xmlns:rdf="http://www.w3.org/1999/02/22-rdf-syntax-ns#" xmlns:xsi="http://www.w3.org/2001/XMLSchema-instance" xmlns:dc="http://purl.org/dc/elements/1.1/" xmlns:dcterms="http://purl.org/dc/terms/"><rdf:RDF><rdf:Description><dc:title>Fun Emoji Set</dc:title><dc:creator>Davis Uche</dc:creator><dc:source xsi:type="dcterms:URI">https://www.figma.com/community/file/968125295144990435</dc:source><dcterms:license xsi:type="dcterms:URI">https://creativecommons.org/licenses/by/4.0/</dcterms:license><dc:rights>Remix of „Fun Emoji Set” (https://www.figma.com/community/file/968125295144990435) by „Davis Uche”, licensed under „CC BY 4.0” (https://creativecommons.org/licenses/by/4.0/)</dc:rights></rdf:Description></rdf:RDF></metadata><mask id="viewboxMask"><rect width="200" height="200" rx="0" ry="0" x="0" y="0" fill="#fff" /></mask><g mask="url(#viewboxMask)"><rect fill="#d9915b" width="200" height="200" x="0" y="0" /><g transform="matrix(1.5625 0 0 1.5625 37.5 110.94)"><path fill-rule="evenodd" clip-rule="evenodd" d="M4 4c10.24 32.68 61.73 31.31 72 0A167.66 167.66 0 0 1 4 4Z" fill="#2B1607"/><path d="M39.68 29h-.64c-17.41-.24-31.54-9.95-36-24.74a1.02 1.02 0 0 1 .2-.95.98.98 0 0 1 .91-.28 165.35 165.35 0 0 0 71.72 0 .91.91 0 0 1 .9.3 1.04 1.04 0 0 1 .19.97C71.93 19.37 57.36 29 39.68 29ZM5.33 5.3c4.73 13.13 17.76 21.54 33.7 21.77C55.6 27.3 69.29 18.8 74.56 5.3a167.24 167.24 0 0 1-69.22 0Z" fill="#000"/><g style="mix-blend-mode:soft-light" opacity=".4"><path d="M22.02 35.23c5.08 5.6 28.25 5.96 33.85 0a79.58 79.58 0 0 1-33.85 0Z" fill="#422715"/><path d="M22.02 35.23c5.08 5.6 28.25 5.96 33.85 0a79.58 79.58 0 0 1-33.85 0Z" stroke="#000" stroke-width="1.58" stroke-miterlimit="10"/></g><path fill-rule="evenodd" clip-rule="evenodd" d="M40.83 45H38.1c-2.67 0-5.24-1.06-7.13-2.94a10 10 0 0 1-2.96-7.1V19.54c0-1.9 2.8-3.94 4.88-3.46a29.03 29.03 0 0 0 13.26 0C48 15.7 51 17.62 51 19.53v15.44a9.98 9.98 0 0 1-6.28 9.29c-1.23.5-2.55.75-3.89.74Z" fill="url(#mouthTongueOut-a)"/><path fill-rule="evenodd" clip-rule="evenodd" d="M38.27 17c.95 3.75.33 13 1.13 13 .8 0 .53-9.01 1.37-13h-2.5Z" fill="#A00707"/><defs><linearGradient id="mouthTongueOut-a" x1="39.46" y1="45" x2="39.46" y2="16" gradientUnits="userSpaceOnUse"><stop stop-color="#EF0A0A"/><stop offset=".5" stop-color="#ED0A0A"/><stop offset=".67" stop-color="#E60A0A"/><stop offset=".8" stop-color="#DB0A0A"/><stop offset=".9" stop-color="#CA0A0A"/><stop offset=".99" stop-color="#B40A0A"/><stop offset="1" stop-color="#B10A0A"/></linearGradient></defs></g><g transform="matrix(1.5625 0 0 1.5625 31.25 59.38)"><path d="M63.16 19.11a1.68 1.68 0 0 1-1.5-.93 1.75 1.75 0 0 1-.12-1.32 13.54 13.54 0 0 1 4.85-7.1 13.1 13.1 0 0 1 8.07-2.65v.01c2.9-.01 5.73.92 8.06 2.68a13.63 13.63 0 0 1 4.87 7.08c.13.44.08.91-.13 1.32a1.72 1.72 0 0 1-2.3.73 1.69 1.69 0 0 1-.83-1.03c-.63-2.13-1.91-4-3.66-5.32a9.92 9.92 0 0 0-6.07-2c-2.17 0-4.28.7-6.02 2.02a10.26 10.26 0 0 0-3.64 5.3c-.1.35-.32.65-.6.87a1.7 1.7 0 0 1-.98.36ZM2.17 19.11a1.4 1.4 0 0 1-.5-.08 1.68 1.68 0 0 1-1.01-.85 1.75 1.75 0 0 1-.12-1.32 13.57 13.57 0 0 1 4.85-7.1 13.12 13.12 0 0 1 8.07-2.65v.01c2.9-.02 5.73.92 8.06 2.67a13.6 13.6 0 0 1 4.86 7.09 1.75 1.75 0 0 1-.53 1.85c-.18.14-.38.25-.6.32-.42.13-.9.09-1.3-.12-.4-.22-.7-.59-.83-1.03-.62-2.13-1.9-4-3.65-5.31a9.92 9.92 0 0 0-6.06-2.01 9.92 9.92 0 0 0-6.03 2.02 10.26 10.26 0 0 0-3.64 5.3c-.1.35-.31.65-.6.87-.27.22-.61.35-.97.36Z" fill="#000"/></g></g></svg>